<?xml version="1.0" encoding="UTF-8"?>
<svg id="Layer_1" data-name="Layer 1" xmlns="http://www.w3.org/2000/svg" xmlns:xlink="http://www.w3.org/1999/xlink" viewBox="0 0 406.96 410.41">
  <defs>
    <style>
      .cls-1 {
        fill: url(#linear-gradient);
      }
    </style>
    <linearGradient id="linear-gradient" x1="331.58" y1="170.4" x2="-12.99" y2="-46.14" gradientTransform="translate(0 280.74) scale(1 -1)" gradientUnits="userSpaceOnUse">
      <stop offset="0" stop-color="#0df"/>
      <stop offset=".06" stop-color="#09d0ff"/>
      <stop offset=".3" stop-color="#2f9dff"/>
      <stop offset=".51" stop-color="#4b79ff"/>
      <stop offset=".68" stop-color="#5c63ff"/>
      <stop offset=".79" stop-color="#635bff"/>
    </linearGradient>
  </defs>
  <path class="cls-1" d="M186.69,135.8v.63l-24.8,14.32-33.79-19.51v106.9l-57.21-33.03v89.8c0,2.27,1.21,4.36,3.17,5.5l4.82,2.78h0c-8.59,0-17.14-1.21-25.38-3.59l-12.18-3.52V147.17c0-26.92,20.97-48.93,47.47-50.61-12.31-3.33-21.37-14.58-21.37-27.95,0-16.37,13.59-29.57,30.1-28.93,14.93,.58,27.12,12.7,27.78,27.62,.47,10.67-4.83,20.13-13.05,25.52-2.41,1.59-5.07,2.82-7.91,3.63h0c9.31,0,18.45,2.45,26.51,7.1l55.85,32.25h0Zm151.86-22.53c-8.61-9.57-20.8-15.85-34.47-16.71,12.31-3.33,21.37-14.58,21.37-27.95,0-16.37-13.59-29.57-30.11-28.93-14.93,.58-27.12,12.7-27.78,27.62-.47,10.67,4.83,20.13,13.05,25.52,2.41,1.59,5.07,2.82,7.91,3.63-4.65,0-9.27,.61-13.73,1.81-4.45,1.19-8.76,2.97-12.79,5.29l-55.85,32.25v.63l24.8,14.32,33.79-19.51v82.79c22.02-21.27,37.83-40.86,45.63-51.13l-36.55-24.37,64.71-25.26h0Zm-76.78-28.7c-.77-2.21-1.1-4.22-1.24-5.8-11.26-5.6-22.52-11.19-33.77-16.78-6.83-3.39-14.18-5.62-21.75-6.58,11.57-3.56,19.98-14.34,19.98-27.08,0-15.65-12.69-28.33-28.33-28.33s-28.33,12.68-28.33,28.33c0,12.74,8.41,23.52,19.98,27.08-7.56,.96-14.92,3.18-21.74,6.58-11.26,5.6-22.52,11.19-33.77,16.78-.14,1.58-.47,3.59-1.24,5.8-1.21,3.43-2.98,5.92-4.29,7.46,3.37,1.11,7.31,2.73,11.47,5.11,2.46,1.41,4.62,2.87,6.49,4.28l18.52-9.4v20.18l32.91,19.07,32.91-19.07v-20.18l18.52,9.4c1.87-1.41,4.04-2.87,6.49-4.28,4.16-2.39,8.1-4.01,11.47-5.11-1.31-1.55-3.08-4.03-4.29-7.46h0Zm-24.13,152.1s-9.47-9.67-33.6-10.97c14.08-3.33,24.55-15.98,24.55-31.07,0-17.63-14.29-31.92-31.92-31.92s-31.92,14.29-31.92,31.92c0,15.38,10.87,28.21,25.35,31.25-2.18,.16-4.45,.38-6.81,.68-39.61,4.95-64.07,39.59-66.33,70.54l34.09-9.95s4.05-12.35,10.13-15.11v11.05s45.06-19.6,76.46-46.43Zm56.01-95.99l29.85,19.9s-92.31,134.87-220.55,149.79c-128.24,14.93-70.75-91.75-70.75-91.75-12.67,10.5-22.26,30.72-27.36,43.42-4.29,10.66-5.87,22.27-4.16,33.63,9.21,61.2,98.41,51.74,98.41,51.74,21.85-1.96,42.57-6.05,62.09-11.66v17.01l-7.92-4.81c-2.94,2.92-46.98,8.87-46.98,8.87l93.42,53.62,160.85-94.52v-101.87l-31.51,33.19v52.23l-96.54,56.98v-49.82c85.01-45.39,133.58-111.21,133.58-111.21l27.09,20.45,13.82-119.4-113.31,44.22h0Zm-48.46,169.14v28.74l30.95-19.9-1.47-27.27-29.48,18.42h0Z"/>
</svg>